<svg width="48" height="56" viewBox="0 0 48 56" fill="none" xmlns="http://www.w3.org/2000/svg">
<path d="M47.445 37.4891C47.445 39.1178 47.2326 40.8881 46.6661 42.7292C46.1704 44.4996 45.4623 46.1991 44.4709 47.8278C43.5503 49.3857 42.3465 50.802 40.9302 51.935C39.5139 53.1388 37.956 53.9178 36.1857 54.2718C35.4776 54.4135 34.6986 54.5551 33.7072 54.6259C32.7867 54.6967 31.7953 54.7675 30.8039 54.8384C29.8125 54.9092 28.7503 54.9092 27.7589 54.98C26.7675 55.0508 25.9886 55.0508 25.2804 55.0508C21.3149 55.1924 17.3493 55.334 13.3838 55.334C9.4182 55.4049 5.38183 55.4049 1.41627 55.4049C1.20383 53.4929 1.0622 51.6517 0.920575 49.8106C0.708135 47.9694 0.495694 46.0575 0.21244 44.1455C3.39905 44.0039 6.58566 43.8623 9.77226 43.6498C12.8881 43.5082 16.0747 43.2958 19.2613 43.0833C19.9694 43.0125 20.6775 43.0125 21.5981 43.0125C22.4479 43.0125 23.2976 43.0125 24.2182 42.9417C25.068 42.8709 25.9886 42.8709 26.8383 42.8001C27.6881 42.7292 28.3962 42.5876 29.0335 42.446C29.3168 42.3752 29.6709 42.3044 30.0957 42.2336C30.4498 42.0919 30.8039 41.9503 31.1579 41.7379C31.4412 41.5254 31.7245 41.313 31.9369 41.0297C32.2201 40.7465 32.291 40.3924 32.291 39.9675C32.291 38.9761 32.2201 37.9139 32.0077 36.7809C31.7953 35.5771 31.6536 34.5149 31.5828 33.5943C28.113 33.9484 24.6431 34.2316 21.1732 34.5149C17.6326 34.8689 14.1627 35.0106 10.6928 35.0106C8.28518 35.0106 6.37322 34.3024 4.95695 32.957C3.46986 31.6115 2.47847 29.7704 1.84115 27.5752C1.69952 27.0795 1.5579 26.4421 1.41627 25.734C1.34546 25.0259 1.20383 24.3177 1.13302 23.5388C1.0622 22.7598 1.0622 22.0517 0.991389 21.2728C0.920575 20.5646 0.920576 19.9273 0.849762 19.4316C0.637322 16.3866 0.424881 13.4125 0.354068 10.4383C0.212441 7.46412 0.141627 4.48996 0 1.44498C2.26603 1.65742 4.46125 1.86986 6.72728 2.0823C8.9225 2.22393 11.1885 2.43637 13.3838 2.57799C13.3838 4.7024 13.4546 7.03924 13.5254 9.4469C13.667 11.8546 13.9503 14.1206 14.3751 16.1742C14.6584 17.3072 15.0833 18.2278 15.7206 19.0775C16.3579 19.8565 17.1369 20.4938 18.0574 21.0603C18.9072 21.556 19.8986 21.9809 20.9608 22.2641C21.9522 22.4766 23.0144 22.6182 24.0766 22.6182C25.3512 22.6182 26.5551 22.4766 27.8297 22.2641C29.0335 21.9809 30.2374 21.6976 31.4412 21.2728C31.2288 17.8029 31.0871 14.4038 30.9455 11.0756C30.8747 7.67656 30.6622 4.27752 30.3082 0.878469C31.7245 0.878469 33.0699 0.807654 34.4862 0.73684C35.8316 0.666027 37.2479 0.595215 38.5934 0.595215C40.7886 0.595215 42.9838 0.807656 45.179 1.23254C45.179 3.21531 45.179 5.19809 45.2498 7.18087C45.3206 9.16365 45.4623 11.1464 45.5331 13.1292C45.6039 14.0498 45.6747 14.9704 45.7455 15.9617C45.8163 16.8823 45.8872 17.8029 45.958 18.7235C46.0996 21.8393 46.4537 25.0259 46.8077 28.1417C47.2326 31.1866 47.445 34.3733 47.445 37.4891Z" fill="#BEF264"/>
</svg>
